<svg width="49" height="48" viewBox="0 0 49 48" fill="none" xmlns="http://www.w3.org/2000/svg">
<path opacity="0.5" d="M4.5 24C4.5 14.572 4.5 9.858 7.428 6.928C10.36 4 15.072 4 24.5 4C33.928 4 38.642 4 41.57 6.928C44.5 9.86 44.5 14.572 44.5 24C44.5 33.428 44.5 38.142 41.57 41.07C38.644 44 33.928 44 24.5 44C15.072 44 10.358 44 7.428 41.07C4.5 38.144 4.5 33.428 4.5 24Z" stroke="#A38EF8" stroke-width="2"/>
<path d="M18.9688 20.9648C18.9688 18.0117 21.3594 15.8086 24.5469 15.8086C27.5703 15.8086 29.9492 17.8594 29.9492 20.4492C29.9492 22.3359 29.0938 23.7422 26.2695 26.6602L21.9922 31.0781V31.125H30.2305V33H19.0742V31.5469L25.0273 25.2773C27.3008 22.8867 27.8398 21.9844 27.8398 20.5781C27.8398 18.9492 26.3516 17.6484 24.4883 17.6484C22.5078 17.6484 21.0078 19.0781 21.0078 20.9648V20.9766H18.9688V20.9648Z" fill="#A38EF8"/>
</svg>
