<svg width="49" height="48" viewBox="0 0 49 48" fill="none" xmlns="http://www.w3.org/2000/svg">
<path opacity="0.5" d="M4.5 24C4.5 14.572 4.5 9.858 7.428 6.928C10.36 4 15.072 4 24.5 4C33.928 4 38.642 4 41.57 6.928C44.5 9.86 44.5 14.572 44.5 24C44.5 33.428 44.5 38.142 41.57 41.07C38.644 44 33.928 44 24.5 44C15.072 44 10.358 44 7.428 41.07C4.5 38.144 4.5 33.428 4.5 24Z" stroke="#A38EF8" stroke-width="2"/>
<path d="M22.2148 25.1953V23.4141H24.2422C26.1875 23.4141 27.5469 22.1602 27.5469 20.4492C27.5469 18.7734 26.4102 17.6367 24.2656 17.6367C22.3203 17.6367 21.0312 18.75 20.8438 20.5195H18.8164C19.0508 17.6484 21.1836 15.8086 24.3594 15.8086C27.3828 15.8086 29.668 17.625 29.668 20.168C29.668 22.2891 28.3086 23.8125 26.1992 24.1875V24.2344C28.7539 24.3867 30.3945 25.9688 30.3945 28.3477C30.3945 31.2539 27.7461 33.2812 24.4297 33.2812C20.8906 33.2812 18.6289 31.3242 18.4766 28.5234H20.5039C20.6914 30.2578 22.1328 31.4531 24.4062 31.4531C26.6445 31.4531 28.25 30.1875 28.25 28.418C28.25 26.4258 26.75 25.1953 24.3359 25.1953H22.2148Z" fill="#A38EF8"/>
</svg>
