<svg width="49" height="48" viewBox="0 0 49 48" fill="none" xmlns="http://www.w3.org/2000/svg">
<path opacity="0.5" d="M4.5 24C4.5 14.572 4.5 9.858 7.428 6.928C10.36 4 15.072 4 24.5 4C33.928 4 38.642 4 41.57 6.928C44.5 9.86 44.5 14.572 44.5 24C44.5 33.428 44.5 38.142 41.57 41.07C38.644 44 33.928 44 24.5 44C15.072 44 10.358 44 7.428 41.07C4.5 38.144 4.5 33.428 4.5 24Z" stroke="#A38EF8" stroke-width="2"/>
<path d="M24.6641 33.2812C21.4297 33.2812 19.0391 31.2656 18.8633 28.3828H20.9375C21.125 30.1875 22.6602 31.4297 24.6875 31.4297C26.9844 31.4297 28.5781 29.8359 28.5781 27.5625C28.5781 25.2891 26.9727 23.6602 24.7227 23.6602C23.1406 23.6602 21.793 24.375 21.1016 25.5586H19.1211L20.0469 16.0898H29.7266V17.9648H21.7812L21.2656 23.4727H21.3125C22.0742 22.4531 23.4805 21.8438 25.0977 21.8438C28.3438 21.8438 30.6875 24.2227 30.6875 27.5039C30.6875 30.9023 28.1914 33.2812 24.6641 33.2812Z" fill="#A38EF8"/>
</svg>
