<svg width="49" height="48" viewBox="0 0 49 48" fill="none" xmlns="http://www.w3.org/2000/svg">
<path opacity="0.5" d="M4.5 24C4.5 14.572 4.5 9.858 7.428 6.928C10.36 4 15.072 4 24.5 4C33.928 4 38.642 4 41.57 6.928C44.5 9.86 44.5 14.572 44.5 24C44.5 33.428 44.5 38.142 41.57 41.07C38.644 44 33.928 44 24.5 44C15.072 44 10.358 44 7.428 41.07C4.5 38.144 4.5 33.428 4.5 24Z" stroke="#A38EF8" stroke-width="2"/>
<path d="M24.8047 33.293C22.2734 33.293 20.2578 31.9219 19.2148 29.4844C18.6523 28.1836 18.3828 26.6602 18.3828 24.832C18.3828 19.1367 20.8086 15.7969 24.9453 15.7969C27.8164 15.7969 30.0195 17.5195 30.5586 20.1797H28.4141C27.957 18.6445 26.5977 17.6602 24.9219 17.6602C22.0977 17.6602 20.4922 20.168 20.4219 24.668H20.457C21.2188 23.0156 23.082 21.9258 25.1797 21.9258C28.4023 21.9258 30.793 24.3047 30.793 27.5156C30.793 30.8555 28.2734 33.293 24.8047 33.293ZM24.7812 31.418C26.9375 31.418 28.6484 29.7188 28.6484 27.5859C28.6484 25.3711 27.0547 23.7773 24.8164 23.7773C22.5781 23.7773 20.9258 25.3711 20.9258 27.5273C20.9258 29.6953 22.6133 31.418 24.7812 31.418Z" fill="#A38EF8"/>
</svg>
