<svg width="49" height="48" viewBox="0 0 49 48" fill="none" xmlns="http://www.w3.org/2000/svg">
<path opacity="0.5" d="M4.5 24C4.5 14.572 4.5 9.858 7.428 6.928C10.36 4 15.072 4 24.5 4C33.928 4 38.642 4 41.57 6.928C44.5 9.86 44.5 14.572 44.5 24C44.5 33.428 44.5 38.142 41.57 41.07C38.644 44 33.928 44 24.5 44C15.072 44 10.358 44 7.428 41.07C4.5 38.144 4.5 33.428 4.5 24Z" stroke="#A38EF8" stroke-width="2"/>
<path d="M20.2812 33L27.9336 18.0117V17.9648H18.8281V16.0898H30.0195V18.0469L22.4961 33H20.2812Z" fill="#A38EF8"/>
</svg>
