<svg width="49" height="48" viewBox="0 0 49 48" fill="none" xmlns="http://www.w3.org/2000/svg">
<path opacity="0.5" d="M4.5 24C4.5 14.572 4.5 9.858 7.428 6.928C10.36 4 15.072 4 24.5 4C33.928 4 38.642 4 41.57 6.928C44.5 9.86 44.5 14.572 44.5 24C44.5 33.428 44.5 38.142 41.57 41.07C38.644 44 33.928 44 24.5 44C15.072 44 10.358 44 7.428 41.07C4.5 38.144 4.5 33.428 4.5 24Z" stroke="#A38EF8" stroke-width="2"/>
<path d="M24.4883 33.2812C20.9141 33.2812 18.3594 31.2539 18.3594 28.4297C18.3594 26.3203 19.8125 24.5859 21.9922 24.082V24.0352C20.1641 23.4727 19.0273 22.0312 19.0273 20.25C19.0273 17.6953 21.3477 15.8086 24.4883 15.8086C27.6523 15.8086 29.9375 17.6836 29.9375 20.2617C29.9375 22.0195 28.8242 23.4492 26.9844 24.0352V24.082C29.1758 24.5977 30.6289 26.332 30.6289 28.4297C30.6289 31.2656 28.0742 33.2812 24.4883 33.2812ZM24.4883 31.4414C26.8203 31.4414 28.4727 30.1172 28.4727 28.2773C28.4727 26.4141 26.8203 25.1016 24.4883 25.1016C22.168 25.1016 20.5039 26.4258 20.5039 28.2773C20.5039 30.1172 22.168 31.4414 24.4883 31.4414ZM24.4883 23.25C26.457 23.25 27.8516 22.0898 27.8516 20.4492C27.8516 18.7852 26.4688 17.625 24.4883 17.625C22.5078 17.625 21.125 18.7969 21.125 20.4492C21.125 22.0898 22.5078 23.25 24.4883 23.25Z" fill="#A38EF8"/>
</svg>
