<svg width="1440" height="200" viewBox="0 0 1440 200" fill="none" xmlns="http://www.w3.org/2000/svg">
<g opacity="0.2" clip-path="url(#clip0_2684_2293)">
<rect width="35.427" height="376.453" transform="matrix(0.98155 0.191208 -0.345822 0.9383 17.1047 -80)" fill="#A38EF8"/>
<rect width="35.427" height="376.453" transform="matrix(0.98155 0.191208 -0.345822 0.9383 83.1047 -80)" fill="#A38EF8"/>
<rect width="35.427" height="376.453" transform="matrix(0.98155 0.191208 -0.345822 0.9383 148.064 -80)" fill="#A38EF8"/>
<rect width="35.427" height="376.453" transform="matrix(0.98155 0.191208 -0.345822 0.9383 213.023 -80)" fill="#A38EF8"/>
<rect width="35.427" height="376.453" transform="matrix(0.98155 0.191208 -0.345822 0.9383 277.983 -80)" fill="#A38EF8"/>
<rect width="35.427" height="376.453" transform="matrix(0.98155 0.191208 -0.345822 0.9383 343.983 -80)" fill="#A38EF8"/>
<rect width="35.427" height="376.453" transform="matrix(0.98155 0.191208 -0.345822 0.9383 408.942 -80)" fill="#A38EF8"/>
<rect width="35.427" height="376.453" transform="matrix(0.98155 0.191208 -0.345822 0.9383 473.902 -80)" fill="#A38EF8"/>
<rect width="35.427" height="376.453" transform="matrix(0.98155 0.191208 -0.345822 0.9383 538.861 -80)" fill="#A38EF8"/>
<rect width="35.427" height="376.453" transform="matrix(0.98155 0.191208 -0.345822 0.9383 604.861 -80)" fill="#A38EF8"/>
<rect width="35.427" height="376.453" transform="matrix(0.98155 0.191208 -0.345822 0.9383 669.82 -80)" fill="#A38EF8"/>
<rect width="35.427" height="376.453" transform="matrix(0.98155 0.191208 -0.345822 0.9383 734.78 -80)" fill="#A38EF8"/>
<rect width="35.427" height="376.453" transform="matrix(0.98155 0.191208 -0.345822 0.9383 799.739 -80)" fill="#A38EF8"/>
<rect width="35.427" height="376.453" transform="matrix(0.98155 0.191208 -0.345822 0.9383 865.739 -80)" fill="#A38EF8"/>
<rect width="35.427" height="376.453" transform="matrix(0.98155 0.191208 -0.345822 0.9383 930.698 -80)" fill="#A38EF8"/>
<rect width="35.427" height="376.453" transform="matrix(0.98155 0.191208 -0.345822 0.9383 995.658 -80)" fill="#A38EF8"/>
<rect width="35.427" height="376.453" transform="matrix(0.98155 0.191208 -0.345822 0.9383 1060.62 -80)" fill="#A38EF8"/>
<rect width="35.427" height="376.453" transform="matrix(0.98155 0.191208 -0.345822 0.9383 1126.62 -80)" fill="#A38EF8"/>
<rect width="35.427" height="376.453" transform="matrix(0.98155 0.191208 -0.345822 0.9383 1191.58 -80)" fill="#A38EF8"/>
<rect width="35.427" height="376.453" transform="matrix(0.98155 0.191208 -0.345822 0.9383 1256.54 -80)" fill="#A38EF8"/>
<rect width="35.427" height="376.453" transform="matrix(0.98155 0.191208 -0.345822 0.9383 1321.49 -80)" fill="#A38EF8"/>
<rect width="35.427" height="376.453" transform="matrix(0.98155 0.191208 -0.345822 0.9383 1387.49 -80)" fill="#A38EF8"/>
<rect width="35.427" height="376.453" transform="matrix(0.98155 0.191208 -0.345822 0.9383 1452.45 -80)" fill="#A38EF8"/>
<rect width="35.427" height="376.453" transform="matrix(0.98155 0.191208 -0.345822 0.9383 1517.41 -80)" fill="#A38EF8"/>
</g>
<defs>
<clipPath id="clip0_2684_2293">
<rect width="1926.15" height="200" fill="white" transform="translate(-243)"/>
</clipPath>
</defs>
</svg>
