<svg width="108" height="108" viewBox="0 0 108 108" fill="none" xmlns="http://www.w3.org/2000/svg">
<g id="solar:code-square-line-duotone">
<g id="Group">
<path id="Vector" d="M69.7501 40.4999L70.5241 41.2739C76.5226 47.2724 79.5241 50.2739 79.5241 53.9999C79.5241 57.7259 76.5226 60.7274 70.5241 66.7259L69.7501 67.4999M59.8231 32.2649L54.0001 53.9999L48.1771 75.7349M38.2501 40.4999L37.4761 41.2739C31.4776 47.2724 28.4761 50.2739 28.4761 53.9999C28.4761 57.7259 31.4776 60.7274 37.4761 66.7259L38.2501 67.4999" stroke="#A38EF8" stroke-width="5" stroke-linecap="round"/>
<path id="Vector_2" opacity="0.5" d="M9 54C9 32.787 9 22.1805 15.588 15.588C22.185 9 32.787 9 54 9C75.213 9 85.8195 9 92.4075 15.588C99 22.185 99 32.787 99 54C99 75.213 99 85.8195 92.4075 92.4075C85.824 99 75.213 99 54 99C32.787 99 22.1805 99 15.588 92.4075C9 85.824 9 75.213 9 54Z" stroke="#A38EF8" stroke-width="5"/>
</g>
</g>
</svg>
