<svg width="32" height="32" viewBox="0 0 32 32" fill="none" xmlns="http://www.w3.org/2000/svg">
<g id="Ethereum ETH">
<g id="Group">
<path id="Vector" d="M16.0004 29.5999C23.5115 29.5999 29.6004 23.511 29.6004 15.9999C29.6004 8.48883 23.5115 2.3999 16.0004 2.3999C8.48932 2.3999 2.40039 8.48883 2.40039 15.9999C2.40039 23.511 8.48932 29.5999 16.0004 29.5999Z" fill="#627EEA"/>
<g id="Group_2">
<path id="Vector_2" d="M16.4238 5.7998V13.3393L22.7962 16.1868L16.4238 5.7998Z" fill="black" fill-opacity="0.6"/>
<path id="Vector_3" d="M16.4243 5.7998L10.051 16.1868L16.4243 13.3393V5.7998Z" fill="black"/>
<path id="Vector_4" d="M16.4238 21.0727V26.1957L22.8005 17.3735L16.4238 21.0727Z" fill="black" fill-opacity="0.6"/>
<path id="Vector_5" d="M16.4241 26.1957V21.0719L10.0508 17.3735L16.4241 26.1957Z" fill="black"/>
<path id="Vector_6" d="M16.4238 19.8867L22.7962 16.1866L16.4238 13.3408V19.8867Z" fill="black" fill-opacity="0.2"/>
<path id="Vector_7" d="M10.0508 16.1866L16.4241 19.8867V13.3408L10.0508 16.1866Z" fill="black" fill-opacity="0.6"/>
</g>
</g>
</g>
</svg>
