<svg width="32" height="32" viewBox="0 0 32 32" fill="none" xmlns="http://www.w3.org/2000/svg">
<g id="Near NEAR Icon">
<path id="Vector" d="M15.9898 28.3199C22.8058 28.3199 28.3311 22.7945 28.3311 15.9785C28.3311 9.16254 22.8058 3.63721 15.9898 3.63721C9.17377 3.63721 3.64844 9.16254 3.64844 15.9785C3.64844 22.7945 9.17377 28.3199 15.9898 28.3199Z" fill="#EDEDED"/>
<path id="Vector_2" d="M19.9726 10.0533L17.1886 14.1866C16.9966 14.4693 17.3646 14.8106 17.6313 14.5706L20.3726 12.1866C20.4473 12.1279 20.5486 12.1706 20.5486 12.2773V19.7333C20.5486 19.8346 20.4153 19.8826 20.3566 19.8079L12.0686 9.87727C11.802 9.55194 11.418 9.37594 10.986 9.37594H10.6873C9.9193 9.37594 9.2793 10.0159 9.2793 10.7999V21.2959C9.2793 22.0799 9.91396 22.7199 10.7033 22.7199C11.194 22.7199 11.6526 22.4693 11.9193 22.0373L14.7033 17.9039C14.8953 17.6213 14.5273 17.2799 14.2606 17.5199L11.5193 19.8826C11.4446 19.9413 11.3433 19.8986 11.3433 19.7919V12.3519C11.3433 12.2506 11.4766 12.2026 11.5353 12.2773L19.8286 22.2079C20.0953 22.5333 20.4953 22.7146 20.9113 22.7146H21.21C21.994 22.7146 22.634 22.0746 22.634 21.2906V10.7946C22.634 10.0106 21.9993 9.37061 21.21 9.37061C20.698 9.37061 20.2393 9.62661 19.9726 10.0533Z" fill="black"/>
</g>
</svg>
