<svg width="32" height="32" viewBox="0 0 32 32" fill="none" xmlns="http://www.w3.org/2000/svg">
<g id="Solana">
<path id="Vector" d="M15.9786 2.58643H15.9999C23.1946 2.58643 29.0292 8.42109 29.0292 15.6158V16.3411C29.0292 23.5358 23.1946 29.3704 15.9999 29.3704H15.9786C8.78389 29.3704 2.94922 23.5358 2.94922 16.3411V15.6158C2.94922 8.42109 8.78389 2.58643 15.9786 2.58643Z" fill="black"/>
<path id="Vector_2" d="M21.5622 12.6665C21.5195 12.7145 21.4662 12.7518 21.4075 12.7732C21.3488 12.7998 21.2848 12.8105 21.2208 12.8105H9.14085C8.71418 12.8105 8.49552 12.2772 8.79418 11.9572L10.7782 9.85051C10.8208 9.80251 10.8742 9.76517 10.9382 9.73851C10.9968 9.71184 11.0608 9.70117 11.1248 9.70117H23.2528C23.6848 9.70117 23.8982 10.2398 23.5942 10.5598L21.5622 12.6665ZM21.5622 22.0852C21.4715 22.1758 21.3488 22.2292 21.2208 22.2292H9.14085C8.71418 22.2292 8.49552 21.7065 8.79418 21.3972L10.7782 19.3385C10.8208 19.2905 10.8795 19.2532 10.9382 19.2318C10.9968 19.2052 11.0608 19.1945 11.1248 19.1945H23.2528C23.6848 19.1945 23.8982 19.7225 23.5942 20.0318L21.5622 22.0852ZM21.5622 14.5918C21.4715 14.5012 21.3488 14.4478 21.2208 14.4478H9.14085C8.71418 14.4478 8.49552 14.9705 8.79418 15.2798L10.7782 17.3385C10.8208 17.3865 10.8795 17.4238 10.9382 17.4452C10.9968 17.4718 11.0608 17.4825 11.1248 17.4825H23.2528C23.6848 17.4825 23.8982 16.9545 23.5942 16.6452L21.5622 14.5918Z" fill="url(#paint0_linear_2684_3072)"/>
</g>
<defs>
<linearGradient id="paint0_linear_2684_3072" x1="9.5784" y1="22.3855" x2="22.7749" y2="9.53763" gradientUnits="userSpaceOnUse">
<stop stop-color="#CF41E8"/>
<stop offset="1" stop-color="#10F2B0"/>
</linearGradient>
</defs>
</svg>
