<svg width="32" height="32" viewBox="0 0 32 32" fill="none" xmlns="http://www.w3.org/2000/svg">
<g id="Binance Smart Chain">
<g id="Light">
<g id="OneArt-_x2022_-Desktop-_x2022_-Light">
<g id="Block">
<g id="TVL">
<g id="Icons_x2F_Icon-24_x2F_cake">
<path id="Oval" d="M15.9893 28.2828C22.7846 28.2828 28.2933 22.7741 28.2933 15.9788C28.2933 9.18349 22.7846 3.6748 15.9893 3.6748C9.19399 3.6748 3.6853 9.18349 3.6853 15.9788C3.6853 22.7741 9.19399 28.2828 15.9893 28.2828Z" fill="#F3BA2F"/>
<g id="Icons_x2F_icon-24_x2F_networks_x2F_binance_x5F_smart_x5F_chain">
<path id="Combined-Shape" fill-rule="evenodd" clip-rule="evenodd" d="M19.1808 17.2872L21.0368 19.1378L15.9915 24.1778L10.9515 19.1378L12.8075 17.2872L15.9915 20.4712L19.1808 17.2872ZM15.9915 14.0978L17.8742 15.9805L15.9915 17.8632L14.1142 15.9858V15.9805L14.4448 15.6498L14.6048 15.4898L15.9915 14.0978ZM9.64482 14.1245L11.5008 15.9805L9.64482 17.8312L7.78882 15.9752L9.64482 14.1245ZM22.3381 14.1245L24.1941 15.9805L22.3381 17.8312L20.4822 15.9752L22.3381 14.1245ZM15.9915 7.77783L21.0315 12.8178L19.1755 14.6738L15.9915 11.4845L12.8075 14.6685L10.9515 12.8178L15.9915 7.77783Z" fill="#131415"/>
</g>
</g>
</g>
</g>
</g>
</g>
</g>
</svg>
