<svg width="32" height="32" viewBox="0 0 32 32" fill="none" xmlns="http://www.w3.org/2000/svg">
<g id="Frame">
<g id="Group 274">
<path id="Vector" d="M15.8072 2.3999C23.3366 2.3999 29.4385 8.49402 29.4385 15.9999C29.4385 23.5136 23.3287 29.5999 15.8072 29.5999C8.27774 29.5999 2.17578 23.5058 2.17578 15.9999C2.17578 8.48617 8.28559 2.3999 15.8072 2.3999Z" fill="url(#paint0_radial_2684_3090)"/>
<path id="Vector_2" d="M15.8072 29.6001C8.26213 29.6001 2.15232 23.4903 2.16016 15.9609V15.3805C2.16801 11.4903 5.32879 8.34521 9.22683 8.34521H22.3798C26.2778 8.34521 29.4386 11.4982 29.4464 15.3884V15.9687C29.4543 23.4982 23.3523 29.6001 15.8072 29.6001Z" fill="url(#paint1_radial_2684_3090)"/>
<path id="Vector_3" d="M2.17585 16.3372C2.15232 8.65088 8.4033 2.3999 16.1053 2.3999H16.5994C20.5837 2.3999 20.0582 5.61559 20.0582 9.59206V11.3568C20.0582 15.3332 16.8347 18.5489 12.8504 18.5489H9.37585C5.39938 18.5489 2.17585 20.3058 2.17585 16.3372Z" fill="url(#paint2_radial_2684_3090)"/>
<path id="Vector_4" d="M9.41556 18.5488C12.945 18.5488 15.7999 15.6939 15.7999 12.1802C15.7999 8.65858 12.9371 5.81152 9.41556 5.81152C5.88615 5.81152 3.03125 8.66642 3.03125 12.1802C3.03125 15.6939 5.89399 18.5488 9.41556 18.5488Z" fill="url(#paint3_radial_2684_3090)" fill-opacity="0.56"/>
<path id="Vector_5" d="M20.2472 14.2981C23.1727 14.2981 25.5414 11.9373 25.5414 9.01964C25.5414 6.10199 23.1727 3.74121 20.2472 3.74121C17.3218 3.74121 14.9531 6.10199 14.9531 9.01964C14.9531 11.9373 17.3296 14.2981 20.2472 14.2981Z" fill="url(#paint4_radial_2684_3090)" fill-opacity="0.56"/>
<path id="Vector_6" d="M15.8072 16.7606C15.8072 20.745 11.0386 23.9842 5.1562 23.9842C4.73267 23.9842 2.16797 20.7528 2.16797 16.7606C2.16797 12.7763 3.01503 9.53711 5.1562 9.53711C11.0386 9.53711 15.8072 12.7685 15.8072 16.7606Z" fill="url(#paint5_radial_2684_3090)" fill-opacity="0.96"/>
<path id="Vector_7" d="M24.3336 25.9059C24.3336 27.1059 20.9846 29.5922 15.212 29.5922C11.2983 29.5922 6.43555 26.6039 6.43555 25.4039C6.43555 16.604 11.2983 15.9922 15.212 15.9922C19.1336 16 24.3336 19.1059 24.3336 25.9059Z" fill="url(#paint6_radial_2684_3090)" fill-opacity="0.46"/>
<path id="Vector_8" d="M2.17578 15.9999C2.17578 8.48618 8.28559 2.3999 15.8072 2.3999C23.3366 2.3999 29.4385 8.49402 29.4385 15.9999V17.7019H2.17578V15.9999Z" fill="url(#paint7_linear_2684_3090)" fill-opacity="0.8"/>
<path id="Vector_9" d="M17.4774 16.4549C17.4774 19.953 14.6303 22.7922 11.1244 22.7922C7.61854 22.7922 4.77148 19.953 4.77148 16.4549C4.77148 12.9569 7.61854 10.1177 11.1244 10.1177C14.6303 10.1177 17.4774 12.9569 17.4774 16.4549Z" fill="url(#paint8_radial_2684_3090)" fill-opacity="0.8"/>
<path id="Vector_10" d="M17.5101 20.6666C17.5101 23.7176 15.0316 26.1882 11.9728 26.1882C8.91398 26.1882 6.43555 23.7097 6.43555 20.6666C6.43555 17.6235 8.91398 15.145 11.9728 15.145C15.0395 15.145 17.5101 17.6235 17.5101 20.6666Z" fill="url(#paint9_radial_2684_3090)" fill-opacity="0.5"/>
<path id="Vector_11" d="M15.7445 11.7489C20.2151 11.7489 23.8386 9.6548 23.8386 7.07441C23.8386 4.49402 20.2151 2.3999 15.7445 2.3999C11.2739 2.3999 7.65039 4.49402 7.65039 7.07441C7.65039 9.6548 11.2739 11.7489 15.7445 11.7489Z" fill="url(#paint10_radial_2684_3090)" fill-opacity="0.75"/>
<path id="Vector_12" d="M24.882 14.5174C24.8114 11.639 22.4114 9.31738 19.4624 9.31738C18.0114 9.31738 16.7016 9.87425 15.7291 10.7919C14.7643 9.88209 13.4545 9.31738 12.0114 9.31738C9.06239 9.31738 6.66239 11.6546 6.5918 14.5723V14.588V14.6037C6.5918 16.8233 7.41533 18.7997 8.16827 20.1566C8.54474 20.8468 8.92905 21.4037 9.21925 21.7958C9.36042 21.9919 9.48591 22.1488 9.58003 22.2586C9.62709 22.3135 9.66631 22.3527 9.68984 22.3919C9.70552 22.4076 9.71337 22.4154 9.72121 22.4311C9.72905 22.4389 9.72905 22.439 9.7369 22.4468L9.74474 22.4546L9.75258 22.4625C10.38 23.1762 11.4781 23.2546 12.1996 22.6272C12.9212 21.9997 12.9918 20.9174 12.3722 20.1958C12.3722 20.1958 12.3722 20.1958 12.3722 20.188C12.3722 20.1801 12.3643 20.1801 12.3565 20.1723C12.3408 20.1566 12.3251 20.1331 12.2938 20.0939C12.2389 20.0233 12.1447 19.9135 12.0428 19.7566C11.8232 19.4586 11.5251 19.0193 11.2349 18.4782C10.631 17.388 10.0977 16.0154 10.0898 14.6115C10.1291 13.5684 10.9918 12.737 12.0428 12.737C13.1094 12.737 13.9722 13.5762 13.9957 14.635C14.0036 14.9017 14.0741 15.1527 14.184 15.3801C14.4349 16.0233 15.0624 16.486 15.8075 16.486C16.7643 16.486 17.5408 15.7252 17.5408 14.7762V14.5566C17.58 13.5291 18.4428 12.7056 19.4938 12.7056C20.5447 12.7056 21.4075 13.5291 21.4467 14.5566C21.4389 15.6782 21.0781 16.784 20.6624 17.6546C20.4585 18.086 20.2545 18.4311 20.1134 18.6742C20.0428 18.7919 19.9722 18.886 19.9408 18.9409C19.9251 18.9644 19.9094 18.988 19.9016 18.9958C19.8938 19.0037 19.8938 19.0037 19.8938 19.0037C19.8859 19.0115 19.8781 19.0272 19.8781 19.0272C20.1996 18.635 20.6781 18.3919 21.2349 18.3919C22.1918 18.3919 22.9683 19.1527 22.9683 20.0939C22.9683 20.4311 22.8663 20.7448 22.6859 21.0193C22.6938 21.0272 22.6938 21.0272 22.6938 21.0272V21.0193L22.7016 21.0115C22.7094 21.0037 22.7094 21.0037 22.7094 20.9958C22.7173 20.988 22.7251 20.9801 22.733 20.9566C22.7487 20.9331 22.78 20.8939 22.8114 20.8468C22.8741 20.7527 22.9604 20.6272 23.0624 20.4546C23.2663 20.1252 23.5408 19.6625 23.8075 19.0899C24.333 17.9684 24.9134 16.3448 24.9134 14.5331V14.5174H24.882Z" fill="black"/>
<path id="Vector_13" d="M21.2587 18.3525C20.7097 18.3525 20.2234 18.6035 19.9019 18.9878C19.6666 19.278 19.5254 19.6467 19.5254 20.0467C19.5254 20.9878 20.3019 21.7486 21.2587 21.7486C21.8234 21.7486 22.3175 21.482 22.6391 21.0741C22.6626 21.0349 22.694 21.0035 22.7175 20.9643C22.8901 20.6976 22.9999 20.3839 22.9999 20.0388C22.9842 19.1133 22.2156 18.3525 21.2587 18.3525Z" fill="#B5CD16"/>
</g>
</g>
<defs>
<radialGradient id="paint0_radial_2684_3090" cx="0" cy="0" r="1" gradientUnits="userSpaceOnUse" gradientTransform="translate(25.1824 5.79936) rotate(90) scale(19.5487 19.598)">
<stop offset="0.1531" stop-color="#66B32E"/>
<stop offset="0.3626" stop-color="#61B22F"/>
<stop offset="0.869" stop-color="#46AF5C"/>
<stop offset="1" stop-color="#34AE72"/>
</radialGradient>
<radialGradient id="paint1_radial_2684_3090" cx="0" cy="0" r="1" gradientUnits="userSpaceOnUse" gradientTransform="translate(4.61791 27.5948) rotate(-40.7389) scale(19.095 20.872)">
<stop offset="0.2448" stop-color="#63318A"/>
<stop offset="1" stop-color="#2F358B" stop-opacity="0"/>
</radialGradient>
<radialGradient id="paint2_radial_2684_3090" cx="0" cy="0" r="1" gradientUnits="userSpaceOnUse" gradientTransform="translate(10.9905 5.94332) scale(8.16145 30.1086)">
<stop stop-color="#FCBE33"/>
<stop offset="1" stop-color="#37AE73" stop-opacity="0"/>
</radialGradient>
<radialGradient id="paint3_radial_2684_3090" cx="0" cy="0" r="1" gradientUnits="userSpaceOnUse" gradientTransform="translate(9.41907 11.9591) rotate(90) scale(6.15677 6.17231)">
<stop offset="0.3646" stop-color="#E52826"/>
<stop offset="1" stop-color="#2F358B" stop-opacity="0"/>
</radialGradient>
<radialGradient id="paint4_radial_2684_3090" cx="0" cy="0" r="1" gradientUnits="userSpaceOnUse" gradientTransform="translate(20.2487 8.84543) rotate(90) scale(5.09396 5.10681)">
<stop offset="0.1354" stop-color="#EAE219"/>
<stop offset="0.9375" stop-color="#ADCA0D" stop-opacity="0"/>
</radialGradient>
<radialGradient id="paint5_radial_2684_3090" cx="0" cy="0" r="1" gradientUnits="userSpaceOnUse" gradientTransform="translate(5.15843 16.5161) rotate(90) scale(6.9788 10.2888)">
<stop stop-color="#7C59A1"/>
<stop offset="1" stop-color="#7B4896" stop-opacity="0"/>
</radialGradient>
<radialGradient id="paint6_radial_2684_3090" cx="0" cy="0" r="1" gradientUnits="userSpaceOnUse" gradientTransform="translate(15.2206 28.7982) rotate(90) scale(9.59935 8.10285)">
<stop stop-color="#4A9DD7"/>
<stop offset="0.776" stop-color="#6CBE9C" stop-opacity="0"/>
</radialGradient>
<linearGradient id="paint7_linear_2684_3090" x1="15.8064" y1="7.86367" x2="15.8064" y2="18.2452" gradientUnits="userSpaceOnUse">
<stop stop-color="#F6E826"/>
<stop offset="1" stop-color="#BBD032" stop-opacity="0"/>
</linearGradient>
<radialGradient id="paint8_radial_2684_3090" cx="0" cy="0" r="1" gradientUnits="userSpaceOnUse" gradientTransform="translate(10.6157 14.1738) rotate(135.072) scale(5.746 5.74597)">
<stop stop-color="#974D98"/>
<stop offset="0.8021" stop-color="#974D98" stop-opacity="0"/>
</radialGradient>
<radialGradient id="paint9_radial_2684_3090" cx="0" cy="0" r="1" gradientUnits="userSpaceOnUse" gradientTransform="translate(11.5338 18.6844) rotate(135.072) scale(5.00665 5.00663)">
<stop offset="0.1042" stop-color="#974D98"/>
<stop offset="1" stop-color="#974D98" stop-opacity="0"/>
</radialGradient>
<radialGradient id="paint10_radial_2684_3090" cx="0" cy="0" r="1" gradientUnits="userSpaceOnUse" gradientTransform="translate(14.036 4.09563) rotate(84.7925) scale(4.69407 8.12805)">
<stop offset="0.0459339" stop-color="#F0E529"/>
<stop offset="1" stop-color="#F1C115" stop-opacity="0"/>
</radialGradient>
</defs>
</svg>
