<svg width="32" height="32" viewBox="0 0 32 32" fill="none" xmlns="http://www.w3.org/2000/svg">
<g id="Ethereum ETH">
<g id="Group 273">
<path id="Vector" d="M29.5203 16.3202C29.5203 23.8309 23.431 29.9202 15.9203 29.9202C8.40958 29.9202 2.32031 23.8309 2.32031 16.3202C2.32031 8.80948 8.40958 2.72021 15.9203 2.72021C23.431 2.72021 29.5203 8.80948 29.5203 16.3202Z" fill="#2081E2"/>
<path id="Vector_2" d="M9.02891 16.7772L9.08654 16.685L12.6248 11.149C12.6594 11.0914 12.7363 11.076 12.79 11.1106C12.8093 11.1221 12.8246 11.1413 12.8361 11.1644C13.4278 12.4898 13.9387 14.1379 13.6967 15.1637C13.593 15.5863 13.3164 16.1587 13.0013 16.685C12.9629 16.7619 12.9168 16.8387 12.8669 16.9117C12.8438 16.9463 12.8054 16.9655 12.767 16.9655H9.1288C9.06349 16.9655 9.00586 16.9117 9.00586 16.8464C9.0097 16.8233 9.01739 16.8003 9.02891 16.7772Z" fill="black"/>
<path id="Vector_3" d="M24.7988 17.8071V18.683C24.7988 18.7329 24.7681 18.779 24.722 18.7983C24.4492 18.9135 23.5118 19.3476 23.1199 19.8893C22.1249 21.2724 21.3642 23.2547 19.6661 23.2547H12.578C10.0655 23.2547 8.0293 21.2109 8.0293 18.6907V18.61C8.0293 18.5447 8.08308 18.4871 8.15224 18.4871H12.1055C12.1784 18.4909 12.2361 18.5524 12.2361 18.6254C12.2361 18.6292 12.2361 18.6331 12.2361 18.6369C12.2092 18.8981 12.2553 19.1632 12.3782 19.3976C12.6126 19.8701 13.0966 20.1698 13.623 20.1698H15.5784V18.6407H13.646C13.5769 18.6407 13.5231 18.5831 13.5231 18.514C13.5231 18.4909 13.5308 18.464 13.5461 18.4448C13.5653 18.4141 13.5922 18.3795 13.6153 18.3411C13.7997 18.0798 14.0609 17.6764 14.3183 17.2193C14.5027 16.9042 14.6641 16.5815 14.8062 16.2434C14.8331 16.182 14.8562 16.1205 14.8792 16.0629C14.9177 15.9553 14.9561 15.8593 14.983 15.7594C15.0099 15.6749 15.0329 15.5865 15.056 15.5058C15.1213 15.2138 15.152 14.9142 15.1482 14.6145C15.1482 14.4916 15.1443 14.3648 15.1328 14.2457C15.129 14.1112 15.1097 13.9806 15.0944 13.8462C15.0829 13.7271 15.0636 13.6118 15.0406 13.4927C15.0137 13.316 14.9714 13.1393 14.9292 12.9625L14.9138 12.8934C14.8792 12.7705 14.8523 12.6552 14.8139 12.5361C14.7025 12.1558 14.5757 11.7831 14.4413 11.4335C14.3913 11.2952 14.3375 11.1607 14.2799 11.0301C14.1992 10.8303 14.1147 10.6498 14.0379 10.4769C13.9995 10.4001 13.9649 10.3271 13.9303 10.2541C13.8919 10.1734 13.8535 10.0889 13.8151 10.012C13.7882 9.95057 13.7536 9.89678 13.7344 9.83916L13.4962 9.39735C13.4731 9.36277 13.4847 9.31283 13.5231 9.29362C13.5423 9.28209 13.5653 9.27825 13.5845 9.28593L15.079 9.69317H15.0829C15.0867 9.69317 15.0867 9.69317 15.0867 9.69317L15.2826 9.74695L15.4978 9.80842L15.5784 9.83147V8.94401C15.5746 8.51757 15.9204 8.16797 16.3468 8.16797C16.5504 8.16797 16.7464 8.24865 16.8885 8.39464C17.0345 8.54062 17.1152 8.73656 17.1152 8.94401V10.2618L17.2727 10.3079C17.2842 10.3117 17.2996 10.3194 17.3111 10.3271C17.3495 10.3578 17.4072 10.4001 17.4763 10.4538C17.5339 10.4999 17.5916 10.5537 17.6645 10.6075C17.8067 10.7228 17.9796 10.8726 18.1678 11.0455C18.2178 11.0877 18.2677 11.1338 18.31 11.1761C18.552 11.4028 18.8248 11.6679 19.086 11.9598C19.159 12.0405 19.2282 12.125 19.3012 12.2134C19.3742 12.3018 19.451 12.3901 19.5163 12.4785C19.6047 12.5976 19.7007 12.7167 19.7814 12.8434C19.8198 12.9049 19.8659 12.9664 19.9043 13.024C20.0119 13.1854 20.1041 13.3506 20.1925 13.5158C20.2309 13.5926 20.2693 13.6771 20.3039 13.7578C20.4038 13.9729 20.4768 14.1996 20.5305 14.434C20.5459 14.4839 20.5574 14.5338 20.5613 14.5838V14.5953C20.5766 14.6645 20.5843 14.7336 20.5882 14.8066C20.6112 15.041 20.5997 15.2753 20.5497 15.502C20.5267 15.6019 20.4998 15.6979 20.4691 15.794C20.4345 15.89 20.3999 15.986 20.3577 16.0821C20.2731 16.2819 20.1733 16.4701 20.058 16.6507C20.0196 16.716 19.9773 16.789 19.9312 16.8543C19.8851 16.9196 19.8313 16.9926 19.7891 17.0579C19.7276 17.1424 19.6623 17.2308 19.5931 17.3076C19.5355 17.3921 19.4702 17.469 19.4049 17.5458C19.3127 17.6572 19.2205 17.761 19.1283 17.8608C19.0707 17.9262 19.013 17.9953 18.9516 18.0529C18.8901 18.1182 18.8286 18.1797 18.7748 18.2373C18.6826 18.3295 18.602 18.4025 18.5366 18.464L18.383 18.6062C18.3599 18.6254 18.3292 18.6369 18.3023 18.6369H17.1113V20.1659H18.6096C18.9439 20.1659 19.2666 20.0468 19.5201 19.8279C19.8467 19.5436 20.1579 19.2401 20.446 18.9173C20.4614 18.902 20.4806 18.8866 20.5036 18.8828L24.6451 17.688C24.7104 17.6688 24.7757 17.7072 24.7949 17.7725C24.7988 17.784 24.7988 17.7955 24.7988 17.8071Z" fill="black"/>
</g>
</g>
</svg>
