<svg width="24" height="24" viewBox="0 0 24 24" fill="none" xmlns="http://www.w3.org/2000/svg">
<g id="solar:code-square-line-duotone">
<g id="Group">
<path id="Vector" d="M15.4999 8.99992L15.6719 9.17192C17.0049 10.5049 17.6719 11.1719 17.6719 11.9999C17.6719 12.8279 17.0049 13.4949 15.6719 14.8279L15.4999 14.9999M13.2939 7.16992L11.9999 11.9999L10.7059 16.8299M8.49988 8.99992L8.32788 9.17192C6.99488 10.5049 6.32788 11.1719 6.32788 11.9999C6.32788 12.8279 6.99488 13.4949 8.32788 14.8279L8.49988 14.9999" stroke="#A38EF8" stroke-width="1.5" stroke-linecap="round"/>
<path id="Vector_2" opacity="0.5" d="M2 12C2 7.286 2 4.929 3.464 3.464C4.93 2 7.286 2 12 2C16.714 2 19.071 2 20.535 3.464C22 4.93 22 7.286 22 12C22 16.714 22 19.071 20.535 20.535C19.072 22 16.714 22 12 22C7.286 22 4.929 22 3.464 20.535C2 19.072 2 16.714 2 12Z" stroke="#A38EF8" stroke-width="1.5"/>
</g>
</g>
</svg>
