<svg width="80" height="80" viewBox="0 0 80 80" fill="none" xmlns="http://www.w3.org/2000/svg">
<g id="solar:maximize-square-3-line-duotone">
<g id="Group">
<path id="Vector" opacity="0.5" d="M43.3334 73.3334C56.8501 73.3067 63.9267 72.9767 68.4501 68.4501C73.3334 63.5734 73.3334 55.7134 73.3334 40.0001C73.3334 24.2867 73.3334 16.4301 68.4501 11.5467C63.5701 6.66675 55.7134 6.66675 40.0001 6.66675C24.2867 6.66675 16.4301 6.66675 11.5467 11.5467C7.02341 16.0734 6.69341 23.1467 6.66675 36.6667" stroke="#A38EF8" stroke-width="4" stroke-linecap="round"/>
<path id="Vector_2" d="M40 40.0002L56.6667 23.3335M56.6667 23.3335H44.1667M56.6667 23.3335V35.8335" stroke="#A38EF8" stroke-width="4" stroke-linecap="round" stroke-linejoin="round"/>
<path id="Vector_3" d="M6.66675 60.0001C6.66675 53.7134 6.66675 50.5734 8.62008 48.6201C10.5734 46.6667 13.7134 46.6667 20.0001 46.6667C26.2867 46.6667 29.4267 46.6667 31.3801 48.6201C33.3334 50.5734 33.3334 53.7134 33.3334 60.0001C33.3334 66.2867 33.3334 69.4267 31.3801 71.3801C29.4267 73.3334 26.2867 73.3334 20.0001 73.3334C13.7134 73.3334 10.5734 73.3334 8.62008 71.3801C6.66675 69.4267 6.66675 66.2867 6.66675 60.0001Z" stroke="#A38EF8" stroke-width="4"/>
</g>
</g>
</svg>
