<svg width="81" height="80" viewBox="0 0 81 80" fill="none" xmlns="http://www.w3.org/2000/svg">
<g id="solar:question-square-line-duotone">
<g id="Group">
<path id="Vector" opacity="0.5" d="M7.3335 40.0001C7.3335 24.2867 7.3335 16.4301 12.2135 11.5467C17.1002 6.66675 24.9535 6.66675 40.6668 6.66675C56.3802 6.66675 64.2368 6.66675 69.1168 11.5467C74.0002 16.4334 74.0002 24.2867 74.0002 40.0001C74.0002 55.7134 74.0002 63.5701 69.1168 68.4501C64.2402 73.3334 56.3802 73.3334 40.6668 73.3334C24.9535 73.3334 17.0968 73.3334 12.2135 68.4501C7.3335 63.5734 7.3335 55.7134 7.3335 40.0001Z" stroke="#A38EF8" stroke-width="4"/>
<path id="Vector_2" d="M34.4167 29.5834C34.4169 28.4889 34.7045 27.4136 35.2507 26.4651C35.797 25.5166 36.5827 24.7282 37.5293 24.1788C38.476 23.6293 39.5503 23.3381 40.6448 23.3343C41.7394 23.3304 42.8157 23.6141 43.7662 24.1569C44.7166 24.6997 45.5079 25.4825 46.0608 26.4272C46.6137 27.3718 46.9088 28.4451 46.9166 29.5396C46.9244 30.6341 46.6447 31.7114 46.1053 32.6639C45.566 33.6163 44.786 34.4104 43.8434 34.9667C42.2601 35.9034 40.6667 37.3267 40.6667 39.1667V43.3334" stroke="#A38EF8" stroke-width="4" stroke-linecap="round"/>
<path id="Vector_3" d="M40.6668 56.6667C42.5078 56.6667 44.0002 55.1743 44.0002 53.3333C44.0002 51.4924 42.5078 50 40.6668 50C38.8259 50 37.3335 51.4924 37.3335 53.3333C37.3335 55.1743 38.8259 56.6667 40.6668 56.6667Z" fill="#A38EF8"/>
</g>
</g>
</svg>
