<svg width="80" height="80" viewBox="0 0 80 80" fill="none" xmlns="http://www.w3.org/2000/svg">
<g id="solar:clapperboard-play-line-duotone">
<g id="Group">
<path id="Vector" d="M6.66675 39.9998C6.66675 24.2865 6.66675 16.4298 11.5467 11.5465C16.4334 6.6665 24.2867 6.6665 40.0001 6.6665C55.7134 6.6665 63.5701 6.6665 68.4501 11.5465C73.3334 16.4332 73.3334 24.2865 73.3334 39.9998C73.3334 55.7132 73.3334 63.5698 68.4501 68.4498C63.5734 73.3332 55.7134 73.3332 40.0001 73.3332C24.2867 73.3332 16.4301 73.3332 11.5467 68.4498C6.66675 63.5732 6.66675 55.7132 6.66675 39.9998Z" stroke="#A38EF8" stroke-width="4"/>
<path id="Vector_2" opacity="0.5" d="M71.6668 26.6663H8.3335M23.3335 26.6663L35.0002 8.33301M45.0002 26.6663L56.6668 8.33301M50.0002 48.333C50.0002 46.223 47.7935 44.7997 43.3802 41.9497C38.9068 39.063 36.6702 37.6197 35.0002 38.683C33.3335 39.7397 33.3335 42.603 33.3335 48.333C33.3335 54.063 33.3335 56.9263 35.0002 57.9863C36.6668 59.0463 38.9068 57.603 43.3802 54.7163C47.7935 51.8663 50.0002 50.443 50.0002 48.333Z" stroke="#A38EF8" stroke-width="4" stroke-linecap="round"/>
</g>
</g>
</svg>
