<svg width="81" height="80" viewBox="0 0 81 80" fill="none" xmlns="http://www.w3.org/2000/svg">
<g id="solar:code-square-line-duotone">
<g id="Group">
<path id="Vector" d="M52.3336 29.9999L52.9069 30.5732C57.3503 35.0166 59.5736 37.2399 59.5736 39.9999C59.5736 42.7599 57.3503 44.9832 52.9069 49.4266L52.3336 49.9999M44.9803 23.8999L40.6669 39.9999L36.3536 56.0999M29.0003 29.9999L28.4269 30.5732C23.9836 35.0166 21.7603 37.2399 21.7603 39.9999C21.7603 42.7599 23.9836 44.9832 28.4269 49.4266L29.0003 49.9999" stroke="#A38EF8" stroke-width="4" stroke-linecap="round"/>
<path id="Vector_2" opacity="0.5" d="M7.3335 39.9998C7.3335 24.2865 7.3335 16.4298 12.2135 11.5465C17.1002 6.6665 24.9535 6.6665 40.6668 6.6665C56.3802 6.6665 64.2368 6.6665 69.1168 11.5465C74.0002 16.4332 74.0002 24.2865 74.0002 39.9998C74.0002 55.7132 74.0002 63.5698 69.1168 68.4498C64.2402 73.3332 56.3802 73.3332 40.6668 73.3332C24.9535 73.3332 17.0968 73.3332 12.2135 68.4498C7.3335 63.5732 7.3335 55.7132 7.3335 39.9998Z" stroke="#A38EF8" stroke-width="4"/>
</g>
</g>
</svg>
