<svg width="81" height="80" viewBox="0 0 81 80" fill="none" xmlns="http://www.w3.org/2000/svg">
<g id="solar:turntable-music-note-line-duotone">
<g id="Group">
<path id="Vector" d="M40.3336 73.3332C24.6202 73.3332 16.7636 73.3332 11.8802 68.4498C7.00024 63.5732 7.00024 55.7132 7.00024 39.9998C7.00024 24.2865 7.00024 16.4298 11.8802 11.5465C16.7669 6.6665 24.6202 6.6665 40.3336 6.6665C56.0469 6.6665 63.9036 6.6665 68.7836 11.5465C72.9202 15.6832 73.5502 21.9565 73.6502 33.3332M63.6669 66.6665V39.9998" stroke="#A38EF8" stroke-width="4" stroke-linecap="round"/>
<path id="Vector_2" d="M57.0002 73.3333C60.6821 73.3333 63.6668 70.3486 63.6668 66.6667C63.6668 62.9848 60.6821 60 57.0002 60C53.3183 60 50.3335 62.9848 50.3335 66.6667C50.3335 70.3486 53.3183 73.3333 57.0002 73.3333Z" stroke="#A38EF8" stroke-width="4"/>
<path id="Vector_3" d="M73.667 50C71.0148 50 68.4713 48.9464 66.5959 47.0711C64.7206 45.1957 63.667 42.6522 63.667 40" stroke="#A38EF8" stroke-width="4" stroke-linecap="round"/>
<path id="Vector_4" opacity="0.5" d="M30.3335 40C30.3335 37.3478 31.3871 34.8043 33.2624 32.9289C35.1378 31.0536 37.6813 30 40.3335 30C42.9857 30 45.5292 31.0536 47.4046 32.9289C49.2799 34.8043 50.3335 37.3478 50.3335 40C50.3335 42.6522 49.2799 45.1957 47.4046 47.0711C45.5292 48.9464 42.9857 50 40.3335 50C37.6813 50 35.1378 48.9464 33.2624 47.0711C31.3871 45.1957 30.3335 42.6522 30.3335 40Z" stroke="#A38EF8" stroke-width="4"/>
</g>
</g>
</svg>
