<svg width="81" height="80" viewBox="0 0 81 80" fill="none" xmlns="http://www.w3.org/2000/svg">
<g id="solar:sticker-smile-square-line-duotone">
<g id="Group">
<path id="Vector" d="M30.3335 53.3335C33.1668 55.4335 36.6168 56.6668 40.3335 56.6668C44.0502 56.6668 47.5002 55.4335 50.3335 53.3335" stroke="#A38EF8" stroke-width="4" stroke-linecap="round"/>
<path id="Vector_2" d="M50.3336 40C52.1745 40 53.6669 37.7614 53.6669 35C53.6669 32.2386 52.1745 30 50.3336 30C48.4926 30 47.0002 32.2386 47.0002 35C47.0002 37.7614 48.4926 40 50.3336 40Z" fill="#A38EF8"/>
<path id="Vector_3" d="M30.3336 40C32.1745 40 33.6669 37.7614 33.6669 35C33.6669 32.2386 32.1745 30 30.3336 30C28.4926 30 27.0002 32.2386 27.0002 35C27.0002 37.7614 28.4926 40 30.3336 40Z" fill="#A38EF8"/>
<path id="Vector_4" opacity="0.5" d="M50.3336 73.3334H40.3336C24.6202 73.3334 16.7636 73.3334 11.8802 68.4501C7.00024 63.5734 7.00024 55.7134 7.00024 40.0001C7.00024 24.2867 7.00024 16.4301 11.8802 11.5467C16.7669 6.66675 24.6202 6.66675 40.3336 6.66675C56.0469 6.66675 63.9036 6.66675 68.7836 11.5467C73.6669 16.4334 73.6669 24.2867 73.6669 40.0001V50.0001M50.3336 73.3334C56.522 73.3334 62.4569 70.8751 66.8327 66.4992C71.2086 62.1234 73.6669 56.1885 73.6669 50.0001M50.3336 73.3334C50.3336 67.1301 50.3336 64.0267 51.1502 61.5167C51.963 59.0155 53.3562 56.7421 55.2159 54.8824C57.0756 53.0227 59.349 51.6295 61.8502 50.8167C64.3602 50.0001 67.4636 50.0001 73.6669 50.0001" stroke="#A38EF8" stroke-width="4"/>
</g>
</g>
</svg>
