<svg width="80" height="80" viewBox="0 0 80 80" fill="none" xmlns="http://www.w3.org/2000/svg">
<g id="solar:shop-line-duotone">
<g id="Group">
<path id="Vector" d="M31.6666 6.6665H48.3333L50.5066 28.3898C50.6548 29.8585 50.4934 31.342 50.0328 32.7445C49.5723 34.1469 48.8228 35.4373 47.8328 36.5322C46.8428 37.6271 45.6342 38.5023 44.285 39.1013C42.9359 39.7003 41.4761 40.0098 39.9999 40.0098C38.5238 40.0098 37.064 39.7003 35.7149 39.1013C34.3657 38.5023 33.1571 37.6271 32.1671 36.5322C31.1771 35.4373 30.4276 34.1469 29.9671 32.7445C29.5065 31.342 29.3451 29.8585 29.4933 28.3898L31.6666 6.6665Z" stroke="#A38EF8" stroke-width="4"/>
<path id="Vector_2" d="M11.0999 17.8365C11.6932 14.8698 11.9899 13.3865 12.5932 12.1832C13.2219 10.93 14.1071 9.82296 15.1913 8.93401C16.2755 8.04505 17.5345 7.39402 18.8866 7.02317C20.1866 6.6665 21.6999 6.6665 24.7266 6.6665H31.6666L29.2499 30.8165C29.1224 32.1986 28.7141 33.5401 28.0501 34.759C27.3861 35.9778 26.4803 37.0483 25.3882 37.9049C24.2961 38.7615 23.0407 39.3862 21.6988 39.7408C20.3569 40.0954 18.9567 40.1723 17.584 39.967C16.2113 39.7617 14.895 39.2783 13.7155 38.5466C12.5361 37.8148 11.5185 36.8501 10.7249 35.7113C9.93127 34.5726 9.37841 33.2839 9.10015 31.9242C8.82189 30.5644 8.82408 29.1621 9.10658 27.8032L11.0999 17.8365ZM68.8999 17.8365C68.3066 14.8698 68.0099 13.3865 67.4066 12.1832C66.7779 10.93 65.8928 9.82296 64.8086 8.93401C63.7244 8.04505 62.4654 7.39402 61.1132 7.02317C59.8132 6.6665 58.2999 6.6665 55.2733 6.6665H48.3332L50.7499 30.8165C50.8775 32.1986 51.2857 33.5401 51.9497 34.759C52.6137 35.9778 53.5195 37.0483 54.6116 37.9049C55.7037 38.7615 56.9591 39.3862 58.3011 39.7408C59.643 40.0954 61.0431 40.1723 62.4158 39.967C63.7885 39.7617 65.1049 39.2783 66.2843 38.5466C67.4637 37.8148 68.4814 36.8501 69.275 35.7113C70.0686 34.5726 70.6214 33.2839 70.8997 31.9242C71.1779 30.5644 71.1758 29.1621 70.8932 27.8032L68.8999 17.8365Z" stroke="#A38EF8" stroke-width="4"/>
<path id="Vector_3" opacity="0.5" d="M29.1665 71.6665C29.1665 72.3295 29.4299 72.9654 29.8987 73.4343C30.3676 73.9031 31.0035 74.1665 31.6665 74.1665C32.3295 74.1665 32.9654 73.9031 33.4343 73.4343C33.9031 72.9654 34.1665 72.3295 34.1665 71.6665H29.1665ZM45.8332 71.6665C45.8332 72.3295 46.0966 72.9654 46.5654 73.4343C47.0342 73.9031 47.6701 74.1665 48.3332 74.1665C48.9962 74.1665 49.6321 73.9031 50.1009 73.4343C50.5698 72.9654 50.8332 72.3295 50.8332 71.6665H45.8332ZM41.6665 70.8332H38.3332V75.8332H41.6665V70.8332ZM14.1665 46.6665V36.6665H9.16651V46.6665H14.1665ZM65.8332 36.6665V46.6665H70.8332V36.6665H65.8332ZM38.3332 70.8332C31.9765 70.8332 27.4632 70.8265 24.0332 70.3665C20.6832 69.9165 18.7498 69.0698 17.3398 67.6598L13.8065 71.1932C16.2998 73.6932 19.4632 74.7965 23.3698 75.3232C27.2032 75.8398 32.1198 75.8332 38.3332 75.8332V70.8332ZM9.16651 46.6665C9.16651 52.8798 9.15984 57.7932 9.67651 61.6298C10.2032 65.5365 11.3098 68.6998 13.8032 71.1965L17.3365 67.6632C15.9298 66.2498 15.0832 64.3165 14.6332 60.9632C14.1732 57.5398 14.1665 53.0232 14.1665 46.6665H9.16651ZM41.6665 75.8332C47.8798 75.8332 52.7932 75.8398 56.6298 75.3232C60.5365 74.7965 63.6998 73.6898 66.1965 71.1965L62.6632 67.6632C61.2498 69.0698 59.3165 69.9165 55.9632 70.3665C52.5365 70.8265 48.0232 70.8332 41.6665 70.8332V75.8332ZM65.8332 46.6665C65.8332 53.0232 65.8265 57.5398 65.3665 60.9665C64.9165 64.3165 64.0698 66.2498 62.6598 67.6598L66.1932 71.1932C68.6932 68.6998 69.7965 65.5365 70.3232 61.6298C70.8398 57.7965 70.8332 52.8798 70.8332 46.6665H65.8332ZM34.1665 71.6665V61.6665H29.1665V71.6665H34.1665ZM45.8332 61.6665V71.6665H50.8332V61.6665H45.8332ZM39.9998 55.8332C41.6032 55.8332 42.6398 55.8332 43.4232 55.9065C44.1732 55.9732 44.4465 56.0898 44.5832 56.1698L47.0832 51.8365C46.0598 51.2465 44.9732 51.0265 43.8765 50.9265C42.8098 50.8298 41.5098 50.8332 39.9998 50.8332V55.8332ZM50.8332 61.6665C50.8332 60.1565 50.8332 58.8532 50.7398 57.7898C50.6398 56.6932 50.4198 55.6065 49.8298 54.5832L45.4965 57.0832C45.5765 57.2165 45.6932 57.4932 45.7598 58.2432C45.8298 59.0265 45.8332 60.0632 45.8332 61.6665H50.8332ZM44.5832 56.1698C44.9628 56.3899 45.2778 56.7028 45.4965 57.0832L49.8298 54.5832C49.1712 53.4424 48.2239 52.4951 47.0832 51.8365L44.5832 56.1698ZM34.1665 61.6665C34.1665 60.0632 34.1665 59.0265 34.2398 58.2432C34.3065 57.4932 34.4232 57.2198 34.5032 57.0832L30.1698 54.5832C29.5798 55.6065 29.3598 56.6932 29.2598 57.7898C29.1632 58.8565 29.1665 60.1565 29.1665 61.6665H34.1665ZM39.9998 50.8332C38.4865 50.8332 37.1865 50.8332 36.1232 50.9265C35.0265 51.0265 33.9398 51.2465 32.9165 51.8365L35.4165 56.1698C35.5498 56.0898 35.8265 55.9765 36.5765 55.9065C37.3598 55.8365 38.3965 55.8332 39.9998 55.8332V50.8332ZM34.5032 57.0832C34.7233 56.7036 35.0361 56.3886 35.4165 56.1698L32.9165 51.8365C31.7756 52.495 30.8283 53.4423 30.1698 54.5832L34.5032 57.0832Z" fill="#A38EF8"/>
</g>
</g>
</svg>
