<svg width="81" height="80" viewBox="0 0 81 80" fill="none" xmlns="http://www.w3.org/2000/svg">
<g id="solar:cpu-bolt-line-duotone">
<g id="Group">
<path id="Vector" opacity="0.5" d="M24.0002 33.333C24.0002 28.6197 24.0002 26.263 25.4669 24.7997C26.9269 23.333 29.2836 23.333 34.0002 23.333H47.3336C52.0469 23.333 54.4036 23.333 55.8669 24.7997C57.3336 26.263 57.3336 28.6197 57.3336 33.333V46.6663C57.3336 51.3797 57.3336 53.7363 55.8669 55.1997C54.4036 56.6663 52.0469 56.6663 47.3336 56.6663H34.0002C29.2869 56.6663 26.9302 56.6663 25.4669 55.1997C24.0002 53.7397 24.0002 51.383 24.0002 46.6663V33.333Z" stroke="#A38EF8" stroke-width="4"/>
<path id="Vector_2" d="M42.0968 33.333L37.3335 39.9997H44.0002L39.2368 46.6663" stroke="#A38EF8" stroke-width="4" stroke-linecap="round" stroke-linejoin="round"/>
<path id="Vector_3" d="M14.0002 39.9997C14.0002 27.4297 14.0002 21.143 17.9069 17.2397C21.8102 13.333 28.0969 13.333 40.6669 13.333C53.2369 13.333 59.5236 13.333 63.4269 17.2397C67.3336 21.143 67.3336 27.4297 67.3336 39.9997C67.3336 52.5697 67.3336 58.8563 63.4269 62.7597C59.5236 66.6663 53.2369 66.6663 40.6669 66.6663C28.0969 66.6663 21.8102 66.6663 17.9069 62.7597C14.0002 58.8563 14.0002 52.5697 14.0002 39.9997Z" stroke="#A38EF8" stroke-width="4"/>
<path id="Vector_4" opacity="0.5" d="M14.0002 39.9998H7.3335M74.0002 39.9998H67.3335M14.0002 29.9998H7.3335M74.0002 29.9998H67.3335M14.0002 49.9998H7.3335M74.0002 49.9998H67.3335M40.6668 66.6665V73.3332M40.6668 6.6665V13.3332M30.6668 66.6665V73.3332M30.6668 6.6665V13.3332M50.6668 66.6665V73.3332M50.6668 6.6665V13.3332" stroke="#A38EF8" stroke-width="4" stroke-linecap="round"/>
</g>
</g>
</svg>
