<svg width="80" height="80" viewBox="0 0 80 80" fill="none" xmlns="http://www.w3.org/2000/svg">
<g id="solar:album-line-duotone">
<g id="Group">
<path id="Vector" d="M7.94662 45.9768C6.45662 35.4302 5.71329 30.1602 8.87329 26.7435C12.0333 23.3335 17.66 23.3335 28.9066 23.3335H51.0933C62.34 23.3335 67.9666 23.3335 71.1266 26.7468C74.2833 30.1602 73.54 35.4302 72.0533 45.9768L70.6466 55.9768C69.48 64.2435 68.8966 68.3802 65.9066 70.8568C62.9166 73.3335 58.5066 73.3335 49.6833 73.3335H30.3166C21.4966 73.3335 17.0833 73.3335 14.0933 70.8568C11.1033 68.3802 10.52 64.2468 9.35329 55.9768L7.94662 45.9768Z" stroke="#A38EF8" stroke-width="4"/>
<path id="Vector_2" opacity="0.5" d="M65.2065 23.3334C65.3855 22.3119 65.3388 21.2635 65.0696 20.262C64.8004 19.2604 64.3152 18.3299 63.6481 17.5358C62.9811 16.7417 62.1483 16.1032 61.2082 15.6651C60.2682 15.2271 59.2436 15.0001 58.2065 15.0001H21.7932C20.7561 15.0001 19.7315 15.2271 18.7915 15.6651C17.8514 16.1032 17.0186 16.7417 16.3516 17.5358C15.6845 18.3299 15.1994 19.2604 14.9301 20.262C14.6609 21.2635 14.6142 22.3119 14.7932 23.3334M58.3332 15.0001C58.4265 14.1334 58.4765 13.7034 58.4765 13.3467C58.4801 11.6991 57.8734 10.1084 56.7735 8.88163C55.6735 7.65486 54.1582 6.87889 52.5199 6.70341C52.1665 6.66675 51.7332 6.66675 50.8665 6.66675H29.1332C28.2665 6.66675 27.8299 6.66675 27.4765 6.70341C25.8382 6.87889 24.3229 7.65486 23.2229 8.88163C22.123 10.1084 21.5163 11.6991 21.5199 13.3467C21.5199 13.7034 21.5665 14.1367 21.6632 15.0001" stroke="#A38EF8" stroke-width="4"/>
<path id="Vector_3" opacity="0.5" d="M55 43.3335C57.7614 43.3335 60 41.0949 60 38.3335C60 35.5721 57.7614 33.3335 55 33.3335C52.2386 33.3335 50 35.5721 50 38.3335C50 41.0949 52.2386 43.3335 55 43.3335Z" stroke="#A38EF8" stroke-width="4"/>
<path id="Vector_4" opacity="0.5" d="M66.6667 66.6669L57.0534 59.5035C53.9534 57.1969 49.3334 56.9669 45.9201 58.9502L45.0334 59.4669C42.6601 60.8469 39.4334 60.6169 37.3867 58.9202L24.5901 48.3302C22.0367 46.2169 17.9401 46.1035 15.2234 48.0702L10.8101 51.2702" stroke="#A38EF8" stroke-width="4" stroke-linecap="round"/>
</g>
</g>
</svg>
