<svg width="81" height="80" viewBox="0 0 81 80" fill="none" xmlns="http://www.w3.org/2000/svg">
<g id="solar:archive-down-minimlistic-line-duotone">
<g id="Group">
<path id="Vector" opacity="0.5" d="M7.3335 40.0001C7.3335 24.2867 7.3335 16.4301 12.2135 11.5467C17.1002 6.66675 24.9535 6.66675 40.6668 6.66675C56.3802 6.66675 64.2368 6.66675 69.1168 11.5467C74.0002 16.4334 74.0002 24.2867 74.0002 40.0001" stroke="#A38EF8" stroke-width="4"/>
<path id="Vector_2" d="M7.3335 46.6667C7.3335 37.3333 7.3335 32.6667 9.15016 29.1C10.748 25.9641 13.2976 23.4145 16.4335 21.8167C20.0002 20 24.6668 20 34.0002 20H47.3335C56.6668 20 61.3335 20 64.9002 21.8167C68.0361 23.4145 70.5856 25.9641 72.1835 29.1C74.0002 32.6667 74.0002 37.3333 74.0002 46.6667C74.0002 56 74.0002 60.6667 72.1835 64.2333C70.5856 67.3692 68.0361 69.9188 64.9002 71.5167C61.3335 73.3333 56.6668 73.3333 47.3335 73.3333H34.0002C24.6668 73.3333 20.0002 73.3333 16.4335 71.5167C13.2976 69.9188 10.748 67.3692 9.15016 64.2333C7.3335 60.6667 7.3335 56 7.3335 46.6667Z" stroke="#A38EF8" stroke-width="4"/>
<path id="Vector_3" d="M40.6668 36.6667V56.6667M40.6668 56.6667L49.0002 48.3334M40.6668 56.6667L32.3335 48.3334" stroke="#A38EF8" stroke-width="4" stroke-linecap="round" stroke-linejoin="round"/>
</g>
</g>
</svg>
