<svg width="49" height="48" viewBox="0 0 49 48" fill="none" xmlns="http://www.w3.org/2000/svg">
<g id="solar:calendar-line-duotone">
<g id="Group">
<path id="Vector" d="M4.66675 24C4.66675 16.458 4.66675 12.686 7.01075 10.344C9.35275 8 13.1247 8 20.6667 8H28.6667C36.2087 8 39.9807 8 42.3227 10.344C44.6667 12.686 44.6667 16.458 44.6667 24V28C44.6667 35.542 44.6667 39.314 42.3227 41.656C39.9807 44 36.2087 44 28.6667 44H20.6667C13.1247 44 9.35275 44 7.01075 41.656C4.66675 39.314 4.66675 35.542 4.66675 28V24Z" stroke="#A38EF8" stroke-width="2"/>
<path id="Vector_2" opacity="0.5" d="M14.6667 8V5M34.6667 8V5M5.66675 18H43.6667" stroke="#A38EF8" stroke-width="2" stroke-linecap="round"/>
<path id="Vector_3" d="M36.6667 34C36.6667 34.5304 36.456 35.0391 36.081 35.4142C35.7059 35.7893 35.1972 36 34.6667 36C34.1363 36 33.6276 35.7893 33.2525 35.4142C32.8775 35.0391 32.6667 34.5304 32.6667 34C32.6667 33.4696 32.8775 32.9609 33.2525 32.5858C33.6276 32.2107 34.1363 32 34.6667 32C35.1972 32 35.7059 32.2107 36.081 32.5858C36.456 32.9609 36.6667 33.4696 36.6667 34ZM36.6667 26C36.6667 26.5304 36.456 27.0391 36.081 27.4142C35.7059 27.7893 35.1972 28 34.6667 28C34.1363 28 33.6276 27.7893 33.2525 27.4142C32.8775 27.0391 32.6667 26.5304 32.6667 26C32.6667 25.4696 32.8775 24.9609 33.2525 24.5858C33.6276 24.2107 34.1363 24 34.6667 24C35.1972 24 35.7059 24.2107 36.081 24.5858C36.456 24.9609 36.6667 25.4696 36.6667 26ZM26.6667 34C26.6667 34.5304 26.456 35.0391 26.081 35.4142C25.7059 35.7893 25.1972 36 24.6667 36C24.1363 36 23.6276 35.7893 23.2525 35.4142C22.8775 35.0391 22.6667 34.5304 22.6667 34C22.6667 33.4696 22.8775 32.9609 23.2525 32.5858C23.6276 32.2107 24.1363 32 24.6667 32C25.1972 32 25.7059 32.2107 26.081 32.5858C26.456 32.9609 26.6667 33.4696 26.6667 34ZM26.6667 26C26.6667 26.5304 26.456 27.0391 26.081 27.4142C25.7059 27.7893 25.1972 28 24.6667 28C24.1363 28 23.6276 27.7893 23.2525 27.4142C22.8775 27.0391 22.6667 26.5304 22.6667 26C22.6667 25.4696 22.8775 24.9609 23.2525 24.5858C23.6276 24.2107 24.1363 24 24.6667 24C25.1972 24 25.7059 24.2107 26.081 24.5858C26.456 24.9609 26.6667 25.4696 26.6667 26ZM16.6667 34C16.6667 34.5304 16.456 35.0391 16.081 35.4142C15.7059 35.7893 15.1972 36 14.6667 36C14.1363 36 13.6276 35.7893 13.2525 35.4142C12.8775 35.0391 12.6667 34.5304 12.6667 34C12.6667 33.4696 12.8775 32.9609 13.2525 32.5858C13.6276 32.2107 14.1363 32 14.6667 32C15.1972 32 15.7059 32.2107 16.081 32.5858C16.456 32.9609 16.6667 33.4696 16.6667 34ZM16.6667 26C16.6667 26.5304 16.456 27.0391 16.081 27.4142C15.7059 27.7893 15.1972 28 14.6667 28C14.1363 28 13.6276 27.7893 13.2525 27.4142C12.8775 27.0391 12.6667 26.5304 12.6667 26C12.6667 25.4696 12.8775 24.9609 13.2525 24.5858C13.6276 24.2107 14.1363 24 14.6667 24C15.1972 24 15.7059 24.2107 16.081 24.5858C16.456 24.9609 16.6667 25.4696 16.6667 26Z" fill="#A38EF8"/>
</g>
</g>
</svg>
