<svg width="49" height="48" viewBox="0 0 49 48" fill="none" xmlns="http://www.w3.org/2000/svg">
<g id="solar:code-square-line-duotone">
<g id="Group">
<path id="Vector" d="M31.3335 17.9998L31.6775 18.3438C34.3435 21.0098 35.6775 22.3438 35.6775 23.9998C35.6775 25.6558 34.3435 26.9898 31.6775 29.6558L31.3335 29.9998M26.9215 14.3398L24.3335 23.9998L21.7455 33.6598M17.3335 17.9998L16.9895 18.3438C14.3235 21.0098 12.9895 22.3438 12.9895 23.9998C12.9895 25.6558 14.3235 26.9898 16.9895 29.6558L17.3335 29.9998" stroke="#A38EF8" stroke-width="2" stroke-linecap="round"/>
<path id="Vector_2" opacity="0.5" d="M4.3335 24C4.3335 14.572 4.3335 9.858 7.2615 6.928C10.1935 4 14.9055 4 24.3335 4C33.7615 4 38.4755 4 41.4035 6.928C44.3335 9.86 44.3335 14.572 44.3335 24C44.3335 33.428 44.3335 38.142 41.4035 41.07C38.4775 44 33.7615 44 24.3335 44C14.9055 44 10.1915 44 7.2615 41.07C4.3335 38.144 4.3335 33.428 4.3335 24Z" stroke="#A38EF8" stroke-width="2"/>
</g>
</g>
</svg>
