<svg width="49" height="49" viewBox="0 0 49 49" fill="none" xmlns="http://www.w3.org/2000/svg">
<g id="solar:money-bag-line-duotone">
<g id="Group">
<path id="Vector" d="M4.66675 28.5C4.66675 20.958 4.66675 17.186 7.01075 14.844C9.35275 12.5 13.1247 12.5 20.6667 12.5H28.6667C36.2087 12.5 39.9807 12.5 42.3227 14.844C44.6667 17.186 44.6667 20.958 44.6667 28.5C44.6667 36.042 44.6667 39.814 42.3227 42.156C39.9807 44.5 36.2087 44.5 28.6667 44.5H20.6667C13.1247 44.5 9.35275 44.5 7.01075 42.156C4.66675 39.814 4.66675 36.042 4.66675 28.5Z" stroke="#A38EF8" stroke-width="2"/>
<path id="Vector_2" opacity="0.5" d="M32.6667 12.5C32.6667 8.728 32.6667 6.844 31.4947 5.672C30.3227 4.5 28.4387 4.5 24.6667 4.5C20.8947 4.5 19.0107 4.5 17.8387 5.672C16.6667 6.844 16.6667 8.728 16.6667 12.5" stroke="#A38EF8" stroke-width="2"/>
<path id="Vector_3" opacity="0.5" d="M24.6667 35.166C26.8767 35.166 28.6667 33.674 28.6667 31.834C28.6667 29.994 26.8767 28.5 24.6667 28.5C22.4567 28.5 20.6667 27.008 20.6667 25.166C20.6667 23.326 22.4567 21.834 24.6667 21.834M24.6667 35.166C22.4567 35.166 20.6667 33.674 20.6667 31.834M24.6667 35.166V36.5M24.6667 21.834V20.5M24.6667 21.834C26.8767 21.834 28.6667 23.326 28.6667 25.166" stroke="#A38EF8" stroke-width="2" stroke-linecap="round"/>
</g>
</g>
</svg>
